inDegrees=no
num_controls=7
num_derivatives=13
num_iterations=145
num_multipliers=7
num_parameters=0
num_slacks=7
num_states=26
objective=5.535298
objective_accelerations=0.284955
objective_balance=0.016021
objective_effort=0.316313
objective_height=4.822689
objective_ligament=0.095320
solver_duration=1257.371526
status=Solve_Succeeded
success=true
DataType=double
version=3
OpenSimVersion=4.4-2022-07-23-0e9fedc
endheader
time	/jointset/ground_pelvis/pelvis_tilt/value	/jointset/ground_pelvis/pelvis_tx/value	/jointset/ground_pelvis/pelvis_ty/value	/jointset/hip_r/hip_flexion_r/value	/jointset/hip_r/hip_adduction_r/value	/jointset/hip_r/hip_rotation_r/value	/jointset/back/lumbar_extension/value	/jointset/patellofemoral_r/patellar_flexion_r/value	/jointset/knee_r/knee_flexion_r/value	/jointset/knee_r/knee_adduction_r/value	/jointset/knee_r/knee_rotation_r/value	/jointset/ankle_r/ankle_angle_r/value	/jointset/subtalar_r/subtalar_angle_r/value	/jointset/ground_pelvis/pelvis_tilt/speed	/jointset/ground_pelvis/pelvis_tx/speed	/jointset/ground_pelvis/pelvis_ty/speed	/jointset/hip_r/hip_flexion_r/speed	/jointset/hip_r/hip_adduction_r/speed	/jointset/hip_r/hip_rotation_r/speed	/jointset/back/lumbar_extension/speed	/jointset/patellofemoral_r/patellar_flexion_r/speed	/jointset/knee_r/knee_flexion_r/speed	/jointset/knee_r/knee_adduction_r/speed	/jointset/knee_r/knee_rotation_r/speed	/jointset/ankle_r/ankle_angle_r/speed	/jointset/subtalar_r/subtalar_angle_r/speed	/forceset/tau_hip_flexion_r	/forceset/tau_hip_adduction_r	/forceset/tau_hip_rotation_r	/forceset/tau_knee_flexion_r	/forceset/tau_ankle_angle_r	/forceset/tau_subtalar_angle_r	/forceset/tau_lumbar_extension	lambda_cid13_p0	lambda_cid14_p0	lambda_cid14_p1	lambda_cid14_p2	lambda_cid14_p3	lambda_cid14_p4	lambda_cid14_p5	/jointset/ground_pelvis/pelvis_tilt/accel	/jointset/ground_pelvis/pelvis_tx/accel	/jointset/ground_pelvis/pelvis_ty/accel	/jointset/hip_r/hip_flexion_r/accel	/jointset/hip_r/hip_adduction_r/accel	/jointset/hip_r/hip_rotation_r/accel	/jointset/back/lumbar_extension/accel	/jointset/patellofemoral_r/patellar_flexion_r/accel	/jointset/knee_r/knee_flexion_r/accel	/jointset/knee_r/knee_adduction_r/accel	/jointset/knee_r/knee_rotation_r/accel	/jointset/ankle_r/ankle_angle_r/accel	/jointset/subtalar_r/subtalar_angle_r/accel	gamma_cid13_p0	gamma_cid14_p0	gamma_cid14_p1	gamma_cid14_p2	gamma_cid14_p3	gamma_cid14_p4	gamma_cid14_p5
0	-0.00590875976939345	0.1310153294074781	0.9335362541793826	0.1934208783645156	-0.2264114769972435	-0.2437562149164622	-0.2903791543005566	0.2311793314022585	0.2311793314021609	0.128396141410772	0.1743215202403224	0.08934340440958972	0.06609776773077108	0	0	0	0	0	0	0	0	0	0	0	0	0	0.1027450546723547	-0.07194793416925474	0.001027441818840158	-0.2533510829219989	0.1352354385731948	-0.07619647711200872	-0.0194561205552532	-29.9579947784825	-2.957211612588411	-28.57475119289983	-0.7738392351451596	-5.75583603559915	-623.64795195728	56.51509531880525	-1.148687414449203	-1.409179268274023	-0.5624772341268769	6.844771189773354	0.1366223651751174	1.621772462791075	-5.9239948185853	6.880468773725099	6.880468773723489	-2.102754269931445	0.07880573262866511	1.730824694170752	0.6527073626950373	2.882724405360759e-08	1.839844304158239e-08	-2.035311662439673e-07	1.413519732028087e-07	7.876647620229367e-09	9.229692829602612e-08	-1.773290158192551e-07
0.01	-0.005962904116739933	0.1309454896926969	0.9335089788765997	0.1937548464000261	-0.2264031293845751	-0.2436752952125427	-0.2906751800078948	0.2315155131281326	0.2315155131278225	0.1282899513436398	0.1743227455191136	0.08942750804667662	0.06613156976128086	-0.01085595463607276	-0.01392359590553021	-0.005434660358552013	0.06652938807271268	0.001663667830222464	0.01608308936250895	-0.05882142903639332	0.06680546360457523	0.06680546360456817	-0.0211064979802722	0.0002335440512063122	0.01664462828546609	0.00670368602832546	0.09891145077836767	-0.07795963854651179	0.001452216516437121	-0.2486911409153395	0.1269636110311081	-0.06860297310334125	-0.01613102025422748	-29.96127385238474	-5.281238615790748	-25.47598529946759	-1.505256389083933	-4.640408754106278	-625.2152883307441	62.60676841090653	-1.058112953611594	-1.377296122541423	-0.5308819474240245	6.5173903902896	0.1803553164894147	1.586478766397858	-5.803660079509585	6.515947160236191	6.51594716023587	-2.094889080437451	-0.006069795733709278	1.604871813468616	0.6706758186580745	3.593606588115939e-08	1.739914181551112e-08	-2.242272772372198e-07	1.62910921522129e-07	1.469593195117305e-08	3.425139783250806e-08	-1.969949768686694e-07
0.02	-0.006126420703569419	0.1307377447446844	0.9334279726680869	0.1947461818710975	-0.2263783218286468	-0.2434365642963021	-0.2915479086322718	0.2325068218909044	0.2325068218908576	0.1279766379922895	0.1743259665318709	0.08967277595016887	0.06623070397122621	-0.02187444788882064	-0.02758104664625118	-0.01074618114597633	0.1314734871161999	0.003291988642210119	0.03156224246164543	-0.115340583406288	0.1310254074656349	0.1310254074656319	-0.04142465669501948	0.0003991466183467875	0.03223285328026755	0.01306643588690465	0.09507784688426546	-0.0839713429238468	0.00187699121753645	-0.244031198909155	0.1186917834888819	-0.06100946909486452	-0.01280591995313149	-29.97076276983758	-7.552547635613617	-22.381682980986	-2.220319471019858	-3.478973048685484	-625.9223388850825	68.49023826270734	-1.1811951377828	-1.355950235313533	-0.5378493199012707	6.527713383928583	0.1295529615280943	1.500985210116609	-5.46353988528487	6.363364825022326	6.36336482502294	-1.94508641682637	0.06521743581565732	1.519544036036366	0.58452012874527	4.30448877087112e-08	1.639984058943986e-08	-2.449233882304724e-07	1.844698698414492e-07	2.151521628211672e-08	-2.379413263100999e-08	-2.166609379180838e-07
0.03	-0.006400168643835136	0.130395181078596	0.9332942869484591	0.1963784438842917	-0.2263378876887713	-0.2430461099465226	-0.2929739380568603	0.234129039695211	0.2341290396952445	0.1274647258629248	0.1743310751906225	0.09006993887421243	0.06639155967429398	-0.03279915795037627	-0.04084427093570808	-0.01598381015908468	0.1946245640892433	0.004756969509288259	0.04646811424424892	-0.169472163885104	0.1931375663326283	0.193137566332642	-0.0607892891630919	0.0006126861280194701	0.04715649846590431	0.01904774745893403	0.09024512392259754	-0.07951884702748971	0.002219213631913859	-0.2394497448770386	0.1139103591926986	-0.06151538799522677	-0.008638837113841853	-29.98605809435403	-9.119643192524538	-22.85093442184216	-2.173899877801838	-3.124132887289893	-626.4287630374863	66.60966418485326	-1.036707749868655	-1.298391853745932	-0.5156517920967021	6.155655252305372	0.1492878084694824	1.476348327980899	-5.328996483179845	6.093044719312961	6.093044719314418	-1.906900216821509	-0.002026343700890831	1.472295841974767	0.5963764223153616	4.507268232270814e-08	1.285020206356524e-08	-2.479807210822349e-07	1.859160836424612e-07	2.591648300722513e-08	-6.972689880969501e-08	-2.188217567366615e-07
0.04	-0.006780883446631082	0.1299226085040092	0.9331084385186834	0.1986315867467862	-0.2262839403083448	-0.2425084048457743	-0.2949294891570522	0.2363639597486779	0.2363639597486326	0.1267642176982091	0.1743380295335537	0.09061504246653275	0.06661051644326008	-0.04326782039288254	-0.0535828283459406	-0.02117872317551829	0.2556496569946691	0.005994636743199687	0.0610123926528458	-0.2212449185236954	0.2535658572706404	0.2535658572706674	-0.07914386383214579	0.0007682835479634537	0.06182098693743401	0.02468664906630737	0.08541240096025535	-0.0750663511310721	0.002561436044406312	-0.2348682908450494	0.1091289348964961	-0.06202130689549262	-0.004471754275069147	-30.00660565457771	-10.63899633091449	-23.32484360709467	-2.111868766320837	-2.730138661457693	-626.1550911050667	64.53992325280815	-1.089985613971528	-1.251016859470067	-0.5293061205662517	6.102516570405411	0.08409023489471251	1.42866653531534	-4.991774717239316	6.02659123922641	6.026591239226351	-1.743074857022655	0.05362901787002748	1.467712693213442	0.5160381358135827	4.699571348900292e-08	9.247979263467866e-09	-2.506743677867503e-07	1.869476018863946e-07	3.026789369922354e-08	-1.15409917271167e-07	-2.206216447875931e-07
0.05	-0.007264670816033624	0.1293250877618987	0.932870723674017	0.2014851347184606	-0.2262188186016682	-0.2418276718386472	-0.2973911473375956	0.2391944699229818	0.2391944699228563	0.1258854509313161	0.1743467328338439	0.09130497871295419	0.06688393547604161	-0.05345521845524757	-0.06585173483795945	-0.02636547147492852	0.3147558247044686	0.007009028092903887	0.07504579401845832	-0.2707373001567717	0.3122152241312307	0.3122152241312577	-0.0964629498480902	0.0009625791050640608	0.07607724163858497	0.02994918222083949	0.0808113389622553	-0.07325226791668013	0.00290965591847492	-0.2310061697068074	0.1041121429576123	-0.06018061657222486	-0.0005629203927083805	-30.03185653606352	-12.13193695211811	-22.74357484472079	-2.253952333600052	-2.260473294318635	-626.2217660939707	64.74216836462911	-0.9779453116975036	-1.204383673643413	-0.5135664931427375	5.769053971446772	0.1070115813305546	1.377452032323675	-4.875557270182846	5.7359569781001	5.735956978099492	-1.704364958283747	0.0008966916704202191	1.391234687849005	0.5241475274340924	4.390704773149189e-08	4.852137540393618e-09	-2.167514464188785e-07	1.737757360423506e-07	3.115603319657931e-08	-1.554069488234692e-07	-1.977914795440246e-07
0.06	-0.007849297847941635	0.1286069667289463	0.9325810998846531	0.2049206217872337	-0.226144173382195	-0.2410092497988465	-0.3003372468112478	0.2426018432795367	0.2426018432794925	0.1248378854074985	0.17435709246313	0.09213480807223171	0.06720853716480221	-0.06343575289061687	-0.07770288651433342	-0.03156051211500895	0.3720374764213308	0.007899339295440407	0.08855019918966267	-0.3181331771432784	0.3689384937368235	0.3689384937368503	-0.1129036152402035	0.001099549343775446	0.08979960951104934	0.03492318026181614	0.076210276964114	-0.07143818470216831	0.003257875792750209	-0.2271440485685937	0.09909535101878995	-0.05833992624879785	0.003345913489495761	-30.0610151102032	-13.5810574306879	-22.16519221852525	-2.383515054915757	-1.763390408329895	-625.5829795974216	64.78158928279422	-1.048612888570935	-1.167465896342538	-0.5309645887002205	5.737613371818343	0.05927420546121325	1.322867296433784	-4.572473787924752	5.641371788227256	5.641371788227151	-1.567390732256525	0.04216395419223543	1.360935327474579	0.4583311131020624	4.06073631561364e-08	4.228802837203475e-10	-1.812867748163799e-07	1.600058329735497e-07	3.18983507488975e-08	-1.951645704006485e-07	-1.739242594248981e-07
